<svg width="51" height="46" viewBox="0 0 51 46" fill="none" xmlns="http://www.w3.org/2000/svg">
<path fill-rule="evenodd" clip-rule="evenodd" d="M19.8339 45.8135H31.1661C39.1246 45.8135 43.1052 45.8135 45.9637 43.9428C47.1975 43.1364 48.2598 42.095 49.09 40.8784C51 38.0787 51 34.1769 51 26.3785C51 18.58 51 14.6782 49.09 11.8785C48.2598 10.6619 47.1975 9.62058 45.9637 8.81411C44.1277 7.61024 41.8276 7.1801 38.3061 7.02739C36.6256 7.02739 35.1798 5.78025 34.8508 4.16405C34.5994 2.9802 33.9463 1.91928 33.0017 1.1606C32.0571 0.401917 30.8791 -0.00800415 29.6667 0.00011843H21.3333C18.8139 0.00011843 16.6438 1.74357 16.1491 4.16405C15.8202 5.78025 14.3743 7.02739 12.6939 7.02739C9.1749 7.1801 6.8748 7.61278 5.03625 8.81411C3.80342 9.62084 2.74195 10.6621 1.9125 11.8785C0 14.6782 0 18.5775 0 26.3785C0 34.1795 2.40086e-07 38.0762 1.90995 40.8784C2.73615 42.0899 3.79695 43.1309 5.03625 43.9428C7.8948 45.8135 11.8753 45.8135 19.8339 45.8135ZM25.5 15.9661C19.6324 15.9661 14.8741 20.6263 14.8741 26.3759C14.8741 32.1255 19.635 36.7934 25.5 36.7934C31.365 36.7934 36.1258 32.1306 36.1258 26.381C36.1258 20.6314 31.365 15.9661 25.5 15.9661ZM25.5 20.13C21.981 20.13 19.125 22.9272 19.125 26.3785C19.125 29.8272 21.981 32.6244 25.5 32.6244C29.019 32.6244 31.875 29.8272 31.875 26.3785C31.875 22.9297 29.019 20.13 25.5 20.13ZM37.5411 18.0481C37.5411 16.8976 38.4922 15.9661 39.6678 15.9661H42.4983C43.6713 15.9661 44.625 16.8976 44.625 18.0481C44.6196 18.6052 44.3929 19.1374 43.9946 19.5278C43.5963 19.9182 43.059 20.1348 42.5008 20.13H39.6678C39.3912 20.1327 39.1167 20.081 38.8602 19.9778C38.6036 19.8746 38.3699 19.722 38.1724 19.5287C37.9749 19.3354 37.8175 19.1051 37.7092 18.8511C37.6009 18.597 37.5437 18.3241 37.5411 18.0481Z" fill="#123873"/>
</svg>
