<svg width="41" height="54" viewBox="0 0 41 54" fill="none" xmlns="http://www.w3.org/2000/svg">
<path d="M30.445 52.8641H3.3832C2.78693 52.8635 2.21531 52.6261 1.79392 52.2043C1.37252 51.7824 1.13582 51.2106 1.13582 50.6143V3.38569C1.13582 2.78943 1.37252 2.21755 1.79392 1.7957C2.21531 1.37385 2.78693 1.13654 3.3832 1.13589H28.3153C28.9115 1.13589 29.4832 1.37387 29.9052 1.79586L38.7082 10.6012C39.1296 11.0232 39.3669 11.5947 39.3682 12.1911V50.6143C39.3682 51.211 39.1312 51.7832 38.7093 52.2052C38.2873 52.6271 37.7151 52.8641 37.1184 52.8641H30.445Z" fill="#599BF2"/>
<path d="M34.4196 6.32245L29.9052 1.79831C29.4836 1.37605 28.912 1.13788 28.3153 1.13589H3.3832C2.78693 1.13654 2.21531 1.37385 1.79392 1.7957C1.37252 2.21755 1.13582 2.78943 1.13582 3.38569V39.6156L34.4196 6.32245Z" fill="white"/>
<path d="M39.3642 12.2009V12.3824H30.3674C29.7711 12.3818 29.1995 12.1445 28.7781 11.7226C28.3567 11.3008 28.12 10.7289 28.12 10.1326V1.13589H28.3212C28.91 1.14079 29.4743 1.37632 29.8963 1.7885L38.7116 10.6037C39.1254 11.033 39.359 11.6046 39.3642 12.2009Z" fill="#E3E3E3" stroke="#123873" stroke-width="2.26279" stroke-linecap="round" stroke-linejoin="round"/>
<path d="M12.3809 10.1328V19.1296M7.88373 14.6324H16.8781M31.1107 22.8882L24.7513 29.25M24.7513 22.8882L31.1107 29.25M10.1311 39.3704H19.128M15.1926 34.8733C15.1926 34.724 15.1335 34.5809 15.0282 34.4751C14.9229 34.3694 14.78 34.3096 14.6308 34.309C14.4815 34.309 14.3384 34.3656 14.2326 34.4709C14.1269 34.5762 14.0671 34.7191 14.0665 34.8684C14.0671 35.0172 14.1265 35.1622 14.2317 35.2674C14.337 35.3726 14.4795 35.432 14.6283 35.4327" stroke="#123873" stroke-width="2.27174" stroke-linecap="round" stroke-linejoin="round"/>
<path d="M15.1899 34.8819C15.1899 34.956 15.1753 35.0294 15.1469 35.0979C15.1186 35.1663 15.077 35.2285 15.0246 35.2809C14.9722 35.3333 14.91 35.3749 14.8415 35.4033C14.7731 35.4316 14.6997 35.4462 14.6256 35.4462M14.628 43.3193C14.7768 43.3199 14.9194 43.3793 15.0246 43.4846C15.1298 43.5898 15.1892 43.7323 15.1899 43.8811M14.628 43.3144C14.4784 43.3144 14.3348 43.3738 14.229 43.4797C14.1232 43.5855 14.0637 43.729 14.0637 43.8787C14.0637 44.0279 14.1228 44.1711 14.2281 44.2768C14.3334 44.3826 14.4763 44.4423 14.6256 44.443" stroke="#123873" stroke-width="2.27174" stroke-linecap="round" stroke-linejoin="round"/>
<path d="M15.1885 43.8641C15.1885 43.9382 15.1739 44.0116 15.1455 44.08C15.1172 44.1485 15.0756 44.2107 15.0232 44.2631C14.9708 44.3155 14.9086 44.3571 14.8401 44.3854C14.7717 44.4138 14.6983 44.4284 14.6242 44.4284" stroke="#123873" stroke-width="2.27174" stroke-linecap="round" stroke-linejoin="round"/>
<path d="M30.445 52.8641H3.3832C2.78693 52.8635 2.21531 52.6261 1.79392 52.2043C1.37252 51.7824 1.13582 51.2106 1.13582 50.6143V3.38569C1.13582 2.78943 1.37252 2.21755 1.79392 1.7957C2.21531 1.37385 2.78693 1.13654 3.3832 1.13589H28.3153C28.9115 1.13589 29.4832 1.37387 29.9052 1.79586L38.7082 10.6012C39.1296 11.0232 39.3669 11.5947 39.3682 12.1911V50.6143C39.3682 51.211 39.1312 51.7832 38.7093 52.2052C38.2873 52.6271 37.7151 52.8641 37.1184 52.8641H30.445Z" stroke="#123873" stroke-width="2.26279" stroke-linecap="round" stroke-linejoin="round"/>
</svg>
