<svg width="31" height="29" viewBox="0 0 31 29" fill="none" xmlns="http://www.w3.org/2000/svg">
<path d="M15.0187 27H11.8004C7.61661 27 4.29105 23.9 4.29105 20V16H6.43657V20C6.43657 22.8 8.79665 25 11.8004 25H15.0187V27ZM27.8918 29H30.2519L25.3172 18H22.9571L18.0224 29H20.3825L21.2407 27H26.9263L27.8918 29ZM22.2062 25L24.1371 20.6L26.0681 25H22.2062ZM27.8918 14H25.7463V10C25.7463 7.2 23.3862 5 20.3825 5H16.0914V3H20.3825C24.5662 3 27.8918 6.1 27.8918 10V14ZM12.8731 4V2H7.50933V0H5.36381V2H3.35698e-07V4H8.79665C8.5821 4.9 7.93844 6.5 6.43657 8C5.79291 7.3 5.25653 6.6 4.93471 6H2.46735C2.89646 7 3.64739 8.2 4.72015 9.3C3.86194 10 2.57463 10.6 1.07276 11.1L1.8237 13C3.75467 12.3 5.25653 11.5 6.43657 10.7C7.61661 11.6 9.11848 12.4 11.0494 13L11.8004 11.1C10.2985 10.6 9.0112 9.9 8.04571 9.3C10.084 7.3 10.7276 5.2 10.9422 4H12.8731Z" fill="#123873"/>
</svg>
